<svg xmlns="http://www.w3.org/2000/svg" fill="none" viewBox="0 0 10 7">
  <path fill="#000" d="M9.70711 2.37373c.39049-.39052.39049-1.02369 0-1.414211-.39053-.390524-1.02369-.390524-1.41422 0L9.70711 2.37373Zm-8-1.414211C1.31658.568995.683417.568995.292893.959519c-.3905245.390521-.3905246 1.023691 0 1.414211L1.70711.959519ZM5 5.66663l-.70711.7071c.39053.39053 1.02369.39053 1.41422 0L5 5.66663ZM8.29289.959519l-4 4.000001 1.41422 1.41421 4-4L8.29289.959519ZM5.70711 4.95952l-4-4.000001L.292893 2.37373l3.999997 4 1.41422-1.41421Z"/>
</svg>
