<svg xmlns="http://www.w3.org/2000/svg" viewBox="0 0 481.07 103.91">
<path d="M208.9 16.85h11.55v41.92l19.02-20.96h14.75l-22.51 23.48 23.39 24.45h-15.04l-19.6-21.64v21.64h-11.55V16.85zm47.64 44.44c0-14.84 10.67-25.71 25.81-25.71s25.62 10.88 25.62 25.71v4.15h-39.3c1.55 7.12 6.89 10.88 13.68 10.88 5.14 0 8.93-1.48 11.35-4.65h12.32C302.43 80.97 293.7 87 282.34 87c-15.14 0-25.81-10.88-25.81-25.71zm39.2-5.24c-1.84-6.53-7.08-9.79-13.39-9.79s-11.55 3.36-13.39 9.79h26.78zm19.8 5.76c0-16.01 9.51-25.26 23.68-25.26s23.68 9.15 23.68 25.26v23.94h-11.55V61.81c0-9.12-4.85-14.49-12.13-14.49s-12.13 5.37-12.13 14.49v23.94h-11.55V61.81zm94.8-44.96v44.93h0c0 8.44-5.63 14.46-14.07 14.46s-14.17-6.02-14.17-14.46c0-7.64 5.73-13.93 14.17-13.93 3.6 0 6.67 1.1 9.03 3.01V40.19c-3.06-2.03-6.8-3.1-10.97-3.1-11.64 0-23.87 7.82-23.87 24.22 0 15.23 10.67 25.72 25.91 25.72s25.52-10.09 25.52-25.62V16.85h-11.55zm44.92 18.58c-15.14 0-25.81 10.92-25.81 25.81s10.67 25.81 25.81 25.81 25.81-10.92 25.81-25.81-10.67-25.81-25.81-25.81zm0 40.75c-8.25 0-14.94-6.69-14.94-14.94s6.69-14.94 14.94-14.94 14.94 6.69 14.94 14.94-6.69 14.94-14.94 14.94zM166.44 19.5c-19.8 0-33.77 14.3-33.77 33.77s13.97 33.77 33.77 33.77 33.77-14.3 33.77-33.77-13.97-33.77-33.77-33.77zm0 55.91a22.14 22.14 0 1 1 0-44.28 22.14 22.14 0 1 1 0 44.28z" fill="#fff"/>
<path d="M0 0h103.91v103.91H0z" fill="#00eab6"/><path d="M51.95 11.46a40.31 40.31 0 0 0-19.49 5h19.49c19.57 0 35.5 15.92 35.5 35.5s-15.92 35.5-35.5 35.5-35.5-15.92-35.5-35.5c0-3.5.52-6.89 1.47-10.08h-5.2a40.35 40.35 0 0 0-1.27 10.08c0 22.36 18.13 40.5 40.5 40.5s40.5-18.13 40.5-40.5-18.13-40.5-40.5-40.5zM25.09 21.67c-1.72 1.53-3.32 3.2-4.76 5h31.62c13.94 0 25.28 11.34 25.28 25.28S65.89 77.23 51.95 77.23 26.67 65.89 26.67 51.95a25.12 25.12 0 0 1 2.1-10.08H23.4a30.06 30.06 0 0 0-1.73 10.08c0 16.73 13.56 30.28 30.28 30.28s30.28-13.56 30.28-30.28-13.56-30.28-30.28-30.28H25.09zm26.86 15.1c8.37 0 15.18 6.81 15.18 15.18s-6.81 15.18-15.18 15.18-15.18-6.81-15.18-15.18c0-3.87 1.47-7.4 3.86-10.08h-6.15c-1.72 2.97-2.72 6.41-2.72 10.08 0 11.15 9.04 20.18 20.18 20.18a20.19 20.19 0 0 0 20.18-20.18 20.19 20.19 0 0 0-20.18-20.18H16.86c-.92 1.6-1.74 3.27-2.44 5h37.53z"/>
</svg>