<svg width="100" height="78" viewBox="0 0 100 78" fill="none" xmlns="http://www.w3.org/2000/svg">
<path d="M69.2166 72.5251H37.788C36.5898 72.5251 35.4838 73.2674 35.1152 74.381C34.5622 76.3297 35.9447 78 37.6958 78H69.1244C70.3226 78 71.4285 77.2576 71.7972 76.1441C72.4424 74.2882 70.9677 72.5251 69.2166 72.5251Z" fill="#00EAB6"/>
<path d="M79.3548 25.4779H88.4793C91.0599 25.4779 93.0876 23.4364 93.0876 20.8382C93.0876 18.2399 91.0599 16.1984 88.4793 16.1984H79.3548C76.7742 16.1984 74.7465 18.2399 74.7465 20.8382C74.7465 23.4364 76.7742 25.4779 79.3548 25.4779Z" fill="#00EAB6"/>
<path d="M88.4793 52.4813H50.6913C48.1106 52.4813 46.083 54.5228 46.083 57.1211C46.083 59.7193 48.1106 61.7608 50.6913 61.7608H88.4793C91.0599 61.7608 93.0876 59.7193 93.0876 57.1211C92.9954 54.6156 90.9678 52.4813 88.4793 52.4813Z" fill="#00EAB6"/>
<path d="M21.3824 33.9223C18.6175 33.9223 16.3133 36.2422 16.3133 39.026C16.3133 41.8099 18.6175 44.1297 21.3824 44.1297H35.3917C38.1566 44.1297 40.4608 41.8099 40.4608 39.026C40.4608 36.2422 38.1566 33.9223 35.3917 33.9223H21.3824Z" fill="#00EAB6"/>
<path d="M94.9309 33.9223H79.8157C77.0507 33.9223 74.7465 36.2422 74.7465 39.026C74.7465 41.8099 77.0507 44.1297 79.8157 44.1297H94.9309C97.6959 44.1297 100 41.8099 100 39.026C99.9078 36.1494 97.6959 33.9223 94.9309 33.9223Z" fill="#00EAB6"/>
<path d="M64.6083 25.4989C67.189 25.4989 69.2166 23.4574 69.2166 20.8591C69.2166 18.2609 67.189 16.2194 64.6083 16.2194H4.6083C2.02765 16.2194 0 18.2609 0 20.8591C0 23.4574 2.02765 25.4989 4.6083 25.4989H64.6083Z" fill="#00EAB6"/>
<path d="M40.4608 57.1169C40.4608 54.5186 38.4332 52.4771 35.8525 52.4771H4.6083C2.02765 52.4771 0 54.5186 0 57.1169C0 59.7152 2.02765 61.7567 4.6083 61.7567H35.8525C38.4332 61.7567 40.4608 59.7152 40.4608 57.1169Z" fill="#00EAB6"/>
<path d="M80.7373 72.5251C78.8019 72.1539 77.1429 73.8242 77.5115 75.7729C77.6959 76.8865 78.6175 77.7216 79.7235 77.9072C81.659 78.2784 83.318 76.6081 82.9493 74.6594C82.765 73.6386 81.8433 72.7107 80.7373 72.5251Z" fill="#00EAB6"/>
<path d="M40.4609 5.52694H71.8894C73.0876 5.52694 74.1936 4.78458 74.5622 3.67104C75.1152 1.72234 73.7328 0.0520217 71.9816 0.0520217H40.553C39.3549 0.0520217 38.2489 0.794383 37.8802 1.90793C37.2351 3.76383 38.6175 5.52694 40.4609 5.52694Z" fill="#00EAB6"/>
<path d="M28.848 5.43415C30.7835 5.80533 32.4425 4.13501 32.0738 2.18631C31.8895 1.07277 30.9678 0.237615 29.8618 0.052025C27.9263 -0.319156 26.2673 1.35116 26.636 3.29986C26.9125 4.3206 27.8342 5.24856 28.848 5.43415Z" fill="#00EAB6"/>
</svg>
