<svg xmlns="http://www.w3.org/2000/svg" fill="none" viewBox="0 0 100 78">
  <path fill="#00EAB6" d="M69.2166 72.5251H37.788c-1.1982 0-2.3042.7423-2.6728 1.8559-.553 1.9487.8295 3.619 2.5806 3.619h31.4286c1.1982 0 2.3041-.7424 2.6728-1.8559.6452-1.8559-.8295-3.619-2.5806-3.619Z"/>
  <path fill="#00EAB6" d="M79.3548 25.4779h9.1245c2.5806 0 4.6083-2.0415 4.6083-4.6397 0-2.5983-2.0277-4.6398-4.6083-4.6398h-9.1245c-2.5806 0-4.6083 2.0415-4.6083 4.6398 0 2.5982 2.0277 4.6397 4.6083 4.6397Z"/>
  <path fill="#00EAB6" d="M88.4793 52.4813h-37.788c-2.5807 0-4.6083 2.0415-4.6083 4.6398 0 2.5982 2.0276 4.6397 4.6083 4.6397h37.788c2.5806 0 4.6083-2.0415 4.6083-4.6397-.0922-2.5055-2.1198-4.6398-4.6083-4.6398Z"/>
  <path fill="#00EAB6" d="M21.3824 33.9223c-2.7649 0-5.0691 2.3199-5.0691 5.1037 0 2.7839 2.3042 5.1037 5.0691 5.1037h14.0093c2.7649 0 5.0691-2.3198 5.0691-5.1037 0-2.7838-2.3042-5.1037-5.0691-5.1037H21.3824Z"/>
  <path fill="#00EAB6" d="M94.9309 33.9223H79.8157c-2.765 0-5.0692 2.3199-5.0692 5.1037 0 2.7839 2.3042 5.1037 5.0692 5.1037h15.1152c2.765 0 5.0691-2.3198 5.0691-5.1037-.0922-2.8766-2.3041-5.1037-5.0691-5.1037Z"/>
  <path fill="#00EAB6" d="M64.6083 25.4989c2.5807 0 4.6083-2.0415 4.6083-4.6398 0-2.5982-2.0276-4.6397-4.6083-4.6397h-60C2.02765 16.2194 0 18.2609 0 20.8591c0 2.5983 2.02765 4.6398 4.6083 4.6398h60Z"/>
  <path fill="#00EAB6" d="M40.4608 57.1169c0-2.5983-2.0276-4.6398-4.6083-4.6398H4.6083C2.02765 52.4771 0 54.5186 0 57.1169s2.02765 4.6398 4.6083 4.6398h31.2442c2.5807 0 4.6083-2.0415 4.6083-4.6398Z"/>
  <path fill="#00EAB6" d="M80.7373 72.5251c-1.9354-.3712-3.5944 1.2991-3.2258 3.2478.1844 1.1136 1.106 1.9487 2.212 2.1343 1.9355.3712 3.5945-1.2991 3.2258-3.2478-.1843-1.0208-1.106-1.9487-2.212-2.1343Z"/>
  <path fill="#00EAB6" d="M40.4609 5.52694h31.4285c1.1982 0 2.3042-.74236 2.6728-1.8559.553-1.9487-.8294-3.6190183-2.5806-3.6190183H40.553c-1.1981 0-2.3041.7423613-2.6728 1.8559083-.6451 1.8559.7373 3.61901 2.5807 3.61901Z"/>
  <path fill="#00EAB6" d="M28.848 5.43415c1.9355.37118 3.5945-1.29914 3.2258-3.24784-.1843-1.11354-1.106-1.948695-2.212-2.134285-1.9355-.371181-3.5945 1.299135-3.2258 3.247835.2765 1.02074 1.1982 1.9487 2.212 2.13429Z"/>
</svg>
